HIERARCHY
ROOT Hips
{
	OFFSET 0.000000 0.000000 0.000000
	CHANNELS 6 Xposition Yposition Zposition Xrotation Yrotation Zrotation
	JOINT LeftUpLeg_virtual
	{
		OFFSET 0.000000 0.000000 0.000000
		CHANNELS 3 Xrotation Yrotation Zrotation
		JOINT LeftUpLeg
		{
			OFFSET 15.427100 -6.655098 0.678600
			CHANNELS 3 Xrotation Yrotation Zrotation
			JOINT LeftLeg
			{
				OFFSET 4.081073 -39.591068 13.024000
				CHANNELS 3 Xrotation Yrotation Zrotation
				JOINT LeftFoot
				{
					OFFSET -4.081074 -37.707932 -15.979700
					CHANNELS 3 Xrotation Yrotation Zrotation
					JOINT LeftToeBase
					{
						OFFSET 5.346399 -15.068900 20.645000
						CHANNELS 3 Xrotation Yrotation Zrotation
						JOINT LeftToe_End
						{
							OFFSET 2.754700 0.931300 11.300900
							CHANNELS 3 Xrotation Yrotation Zrotation
							End Site
							{
								OFFSET 0 0 0
							}
						}
					}
				}
			}
		}
	}
	JOINT RightUpLeg_virtual
	{
		OFFSET 0.000000 0.000000 0.000000
		CHANNELS 3 Xrotation Yrotation Zrotation
		JOINT RightUpLeg
		{
			OFFSET -15.569500 -6.655098 0.678600
			CHANNELS 3 Xrotation Yrotation Zrotation
			JOINT RightLeg
			{
				OFFSET -4.081825 -39.591045 13.023800
				CHANNELS 3 Xrotation Yrotation Zrotation
				JOINT RightFoot
				{
					OFFSET 4.081824 -37.707954 -15.979600
					CHANNELS 3 Xrotation Yrotation Zrotation
					JOINT RightToeBase
					{
						OFFSET -5.346400 -15.068900 20.645000
						CHANNELS 3 Xrotation Yrotation Zrotation
						JOINT RightToe_End
						{
							OFFSET -2.754700 0.931300 11.300900
							CHANNELS 3 Xrotation Yrotation Zrotation
							End Site
							{
								OFFSET 0 0 0
							}
						}
					}
				}
			}
		}
	}
	JOINT Spine_virtual
	{
		OFFSET 0.000000 0.000000 0.000000
		CHANNELS 3 Xrotation Yrotation Zrotation
		JOINT Spine
		{
			OFFSET -0.279200 12.230698 -2.892100
			CHANNELS 3 Xrotation Yrotation Zrotation
			JOINT Spine1
			{
				OFFSET -0.232667 10.192268 -1.242267
				CHANNELS 3 Xrotation Yrotation Zrotation
				JOINT Spine1_split
				{
					OFFSET -0.232667 10.192268 -1.242267
					CHANNELS 3 Xrotation Yrotation Zrotation
					JOINT Spine2
					{
						OFFSET -0.232667 10.192268 -1.242267
						CHANNELS 3 Xrotation Yrotation Zrotation
						JOINT Neck_virtual
						{
							OFFSET 0.000000 0.000000 0.000000
							CHANNELS 3 Xrotation Yrotation Zrotation
							JOINT Neck
							{
								OFFSET -0.418800 17.814194 8.416900
								CHANNELS 3 Xrotation Yrotation Zrotation
								JOINT Head
								{
									OFFSET 0.000000 7.031097 3.806800
									CHANNELS 3 Xrotation Yrotation Zrotation
									JOINT HeadTop_End
									{
										OFFSET 0.000000 24.646606 12.978600
										CHANNELS 3 Xrotation Yrotation Zrotation
										End Site
										{
											OFFSET 0 0 0
										}
									}
								}
							}
						}
						JOINT LeftShoulder_virtual
						{
							OFFSET 0.000000 0.000000 0.000000
							CHANNELS 3 Xrotation Yrotation Zrotation
							JOINT LeftShoulder
							{
								OFFSET 8.476499 7.247704 -3.868750
								CHANNELS 3 Xrotation Yrotation Zrotation
								JOINT LeftShoulder_split
								{
									OFFSET 8.476499 7.247704 -3.868750
									CHANNELS 3 Xrotation Yrotation Zrotation
									JOINT LeftArm
									{
										OFFSET 9.308998 -2.777710 0.208600
										CHANNELS 3 Xrotation Yrotation Zrotation
										JOINT LeftForeArm
										{
											OFFSET 29.972298 0.000000 0.000000
											CHANNELS 3 Xrotation Yrotation Zrotation
											JOINT LeftHand
											{
												OFFSET 26.026505 0.000000 0.000000
												CHANNELS 3 Xrotation Yrotation Zrotation
												End Site
												{
													OFFSET 0 0 0
												}
											}
										}
									}
								}
							}
						}
						JOINT RightShoulder_virtual
						{
							OFFSET 0.000000 0.000000 0.000000
							CHANNELS 3 Xrotation Yrotation Zrotation
							JOINT RightShoulder
							{
								OFFSET -7.570500 7.247704 -3.868750
								CHANNELS 3 Xrotation Yrotation Zrotation
								JOINT RightShoulder_split
								{
									OFFSET -7.570500 7.247704 -3.868750
									CHANNELS 3 Xrotation Yrotation Zrotation
									JOINT RightArm
									{
										OFFSET -9.308998 -2.777710 0.208500
										CHANNELS 3 Xrotation Yrotation Zrotation
										JOINT RightForeArm
										{
											OFFSET -29.972300 0.000000 0.000000
											CHANNELS 3 Xrotation Yrotation Zrotation
											JOINT RightHand
											{
												OFFSET -26.026505 0.000000 0.000000
												CHANNELS 3 Xrotation Yrotation Zrotation
												End Site
												{
													OFFSET 0 0 0
												}
											}
										}
									}
								}
							}
						}
					}
				}
			}
		}
	}
}
MOTION
Frames: 7
Frame Time: 0.03333333
4.918827 92.328972 3.625278 0.000000 0.000000 0.000000 -0.709491 13.577457 7.075580 -17.505840 -3.427017 -4.130879 18.918029 2.180856 -4.153000 -0.585773 11.411241 -0.278252 -1.946164 0.122031 -0.789696 0.000000 0.000000 0.000000 -0.709491 13.577457 7.075580 7.582089 -7.577471 -17.411262 23.922242 -18.663728 2.744970 -7.476359 -35.755340 25.831092 -6.091369 -0.016882 -0.206673 0.000000 0.000000 0.000000 -0.709491 13.577457 7.075580 1.373685 6.592972 10.623261 9.627460 6.013830 1.213983 0.000000 0.000000 0.000000 0.000000 0.000000 0.000000 -0.200653 5.907530 1.227143 -11.589374 -16.052712 -0.377545 3.206331 -15.129209 -3.210451 0.000000 0.000000 0.000000 -0.200653 5.907530 1.227143 1.099648 5.973048 22.519105 0.000000 0.000000 0.000000 -58.734176 3.701362 -30.815710 -31.082599 -20.347224 12.092534 0.000000 0.000000 0.000000 -0.200653 5.907530 1.227143 5.662564 9.164085 5.261979 0.000000 0.000000 0.000000 20.859676 -63.359266 58.540759 0.367559 19.672581 37.179462 0.000000 0.000000 0.000000 
4.730268 91.851959 4.223801 0.000000 0.000000 0.000000 0.438171 23.710150 5.365703 -22.236039 -9.122236 -5.415033 20.182225 0.109797 -4.450623 0.810099 9.520732 0.333564 -1.888314 0.117166 -0.774290 0.000000 0.000000 0.000000 0.438171 23.710150 5.365703 10.396096 -16.119168 -13.622081 21.021026 -17.961178 2.118850 -9.013889 -33.583190 26.068016 -7.886823 -0.013851 -0.038136 0.000000 0.000000 0.000000 0.438171 23.710150 5.365703 -1.164643 7.328754 10.932643 7.340192 7.401400 -0.347056 0.000000 0.000000 0.000000 0.000000 0.000000 0.000000 0.687531 7.224080 -0.473163 -14.981687 -22.379390 3.474327 6.383155 -19.162915 -1.752120 0.000000 0.000000 0.000000 0.687531 7.224080 -0.473163 -0.958327 11.589824 16.054732 0.000000 0.000000 0.000000 -66.492103 6.731942 -32.420920 -50.068558 -20.341212 15.357170 0.000000 0.000000 0.000000 0.687531 7.224080 -0.473163 5.228952 9.723378 6.084447 0.000000 0.000000 0.000000 10.668944 -68.209418 51.667543 -0.500523 18.866876 38.212368 0.000000 0.000000 0.000000 
4.580150 91.360962 4.617653 0.000000 0.000000 0.000000 1.776262 30.780613 3.946088 -26.257516 -14.283392 -7.145525 21.110149 -0.919622 -4.691674 1.854905 9.127036 0.285336 -1.830466 0.112120 -0.758883 0.000000 0.000000 0.000000 1.776262 30.780613 3.946088 12.205277 -24.081403 -10.702462 18.620487 -15.215571 1.762927 -11.248284 -30.999695 24.824024 -9.230062 -0.012051 0.080784 0.000000 0.000000 0.000000 1.776262 30.780613 3.946088 -3.132001 8.031106 10.278130 5.554687 8.658325 -1.589349 0.000000 0.000000 0.000000 0.000000 0.000000 0.000000 1.738244 8.299229 -1.912931 -18.260210 -26.743042 6.305344 8.037614 -21.371754 -1.064209 0.000000 0.000000 0.000000 1.738244 8.299229 -1.912931 -1.577757 14.389622 6.973791 0.000000 0.000000 0.000000 -69.478023 6.137854 -33.977964 -57.150532 -21.535464 12.111631 0.000000 0.000000 0.000000 1.738244 8.299229 -1.912931 4.894000 10.841110 6.313585 0.000000 0.000000 0.000000 4.878235 -64.300890 47.139087 1.435498 17.723765 37.243515 0.000000 0.000000 0.000000 
4.457538 90.919487 4.936111 0.000000 0.000000 0.000000 3.208382 36.115520 2.670782 -29.603020 -18.215920 -8.539567 21.899646 0.143033 -4.780963 2.631441 6.984344 -0.268100 -1.772677 0.107265 -0.743505 0.000000 0.000000 0.000000 3.208382 36.115520 2.670782 13.745422 -30.005144 -8.161933 16.878103 -13.185261 1.524056 -12.952305 -29.105543 23.906400 -10.037545 -0.010583 0.152406 0.000000 0.000000 0.000000 3.208382 36.115520 2.670782 -4.340785 8.827287 8.040310 4.148993 9.738356 -2.313486 0.000000 0.000000 0.000000 0.000000 0.000000 0.000000 2.622315 9.143797 -2.876045 -20.421381 -29.514730 8.606550 9.851728 -22.310418 -0.601217 0.000000 0.000000 0.000000 2.622315 9.143797 -2.876045 -1.551607 16.133055 -1.361289 0.000000 0.000000 0.000000 -73.331308 7.070546 -36.866462 -56.368038 -25.384594 -0.231588 0.000000 0.000000 0.000000 2.622315 9.143797 -2.876045 4.563268 12.285501 5.226381 0.000000 0.000000 0.000000 6.941748 -52.767419 49.307617 2.904023 16.059745 35.334665 0.000000 0.000000 0.000000 
4.354843 90.483429 5.229137 0.000000 0.000000 0.000000 4.791826 40.791191 1.321967 -32.775909 -21.019569 -10.269220 22.388689 -0.473356 -4.950529 3.391180 6.258303 -0.390590 -1.715005 0.102650 -0.728133 0.000000 0.000000 0.000000 4.791826 40.791191 1.321967 15.320237 -35.132628 -5.621701 15.419837 -11.403081 1.339769 -14.433648 -27.475843 23.145160 -10.659069 -0.009481 0.211384 0.000000 0.000000 0.000000 4.791826 40.791191 1.321967 -4.988202 9.449271 4.904656 3.339393 10.362819 -2.593820 0.000000 0.000000 0.000000 0.000000 0.000000 0.000000 3.099136 9.611393 -3.324042 -23.397790 -31.140192 9.386121 10.468599 -22.994679 -0.416189 0.000000 0.000000 0.000000 3.099136 9.611393 -3.324042 -0.965399 17.007816 -7.793443 0.000000 0.000000 0.000000 -77.726412 11.425774 -39.832058 -51.878364 -31.067153 -12.831155 0.000000 0.000000 0.000000 3.099136 9.611393 -3.324042 4.224909 12.867665 4.486709 0.000000 0.000000 0.000000 5.329483 -38.837596 46.365967 4.698893 16.008988 27.128072 0.000000 0.000000 0.000000 
4.268525 90.067215 5.495090 0.000000 0.000000 0.000000 6.514609 44.868705 -0.106311 -35.811618 -23.273982 -12.288224 22.642618 -2.161123 -5.158170 4.127754 6.822053 -0.344271 -1.657473 0.098076 -0.712810 0.000000 0.000000 0.000000 6.514609 44.868705 -0.106311 16.922050 -39.510080 -3.098604 14.179256 -9.900124 1.194274 -15.747811 -26.100960 22.508593 -11.071405 -0.008626 0.258845 0.000000 0.000000 0.000000 6.514609 44.868705 -0.106311 -5.316860 9.716401 2.679271 3.212733 10.604256 -2.845205 0.000000 0.000000 0.000000 0.000000 0.000000 0.000000 3.400538 9.768662 -3.624247 -25.804187 -31.763002 9.107217 11.077092 -23.358861 -0.043472 0.000000 0.000000 0.000000 3.400538 9.768662 -3.624247 -0.059514 17.582719 -13.424224 0.000000 0.000000 0.000000 -79.623839 17.116548 -41.254192 -46.150680 -36.232548 -21.260181 0.000000 0.000000 0.000000 3.400538 9.768662 -3.624247 3.802798 14.096479 4.144492 0.000000 0.000000 0.000000 1.713143 -28.850623 40.087657 7.931356 16.283180 15.789994 0.000000 0.000000 0.000000 
4.196512 89.690193 5.733776 0.000000 0.000000 0.000000 8.362185 48.406647 -1.617704 -38.592133 -25.205620 -14.070886 22.862750 -2.723892 -5.289135 4.766687 6.379650 -0.524616 -1.600146 0.093533 -0.697548 0.000000 0.000000 0.000000 8.362185 48.406647 -1.617704 18.558903 -43.198809 -0.588691 13.057419 -8.688001 1.071912 -16.921681 -24.960619 21.964649 -11.251635 -0.007973 0.295849 0.000000 0.000000 0.000000 8.362185 48.406647 -1.617704 -5.465939 9.853986 1.593385 3.300535 10.760016 -3.175550 0.000000 0.000000 0.000000 0.000000 0.000000 0.000000 3.650577 9.868574 -3.960978 -27.898157 -31.986671 8.510951 11.495091 -23.592950 0.302004 0.000000 0.000000 0.000000 3.650577 9.868574 -3.960978 0.865761 18.510646 -18.583254 0.000000 0.000000 0.000000 -78.463683 21.832406 -41.327993 -41.688654 -41.313997 -27.352111 0.000000 0.000000 0.000000 3.650577 9.868574 -3.960978 3.385714 15.679845 3.994306 0.000000 0.000000 0.000000 -8.455527 -25.731908 31.326085 6.824463 16.272548 15.888004 0.000000 0.000000 0.000000 
